<svg xmlns="http://www.w3.org/2000/svg" viewBox="0 0 400 400" fill="none" stroke="currentColor" stroke-width="2.4" stroke-linecap="round" stroke-linejoin="round"><!-- Vue de dessus, projection unique : melanger un plan et une elevation
       (pointe vue de cote) donnerait une geometrie impossible.
       Seules les puces entierement contenues dans le wafer sont dessinees.
       Croix = puce au rebut, carre interieur = position courante des pointes,
       point = puce deja testee bonne. --><path id="f10-bord-wafer" d="M 183.3 339 A 140 140 0 1 1 216.7 339 L 200 318 Z"/><rect id="f10-die-01" x="165" y="85" width="30" height="30"/><rect id="f10-die-02" x="205" y="85" width="30" height="30"/><rect id="f10-die-03" x="125" y="125" width="30" height="30"/><rect id="f10-die-04" x="165" y="125" width="30" height="30"/><rect id="f10-die-05" x="205" y="125" width="30" height="30"/><rect id="f10-die-06" x="245" y="125" width="30" height="30"/><rect id="f10-die-07" x="85" y="165" width="30" height="30"/><rect id="f10-die-08" x="125" y="165" width="30" height="30"/><rect id="f10-die-09" x="165" y="165" width="30" height="30"/><rect id="f10-die-10" x="205" y="165" width="30" height="30"/><rect id="f10-die-11" x="245" y="165" width="30" height="30"/><rect id="f10-die-12" x="285" y="165" width="30" height="30"/><rect id="f10-die-13" x="85" y="205" width="30" height="30"/><rect id="f10-die-14" x="125" y="205" width="30" height="30"/><rect id="f10-die-15" x="165" y="205" width="30" height="30"/><rect id="f10-die-16" x="205" y="205" width="30" height="30"/><rect id="f10-die-17" x="245" y="205" width="30" height="30"/><rect id="f10-die-18" x="285" y="205" width="30" height="30"/><rect id="f10-die-19" x="125" y="245" width="30" height="30"/><rect id="f10-die-20" x="165" y="245" width="30" height="30"/><rect id="f10-die-21" x="205" y="245" width="30" height="30"/><rect id="f10-die-22" x="245" y="245" width="30" height="30"/><rect id="f10-die-23" x="165" y="285" width="30" height="30"/><rect id="f10-die-24" x="205" y="285" width="30" height="30"/><line id="f10-rebut-01a" x1="172" y1="92" x2="188" y2="108"/><line id="f10-rebut-01b" x1="172" y1="108" x2="188" y2="92"/><circle id="f10-testee-02" cx="220" cy="100" r="3.2"/><circle id="f10-testee-03" cx="140" cy="140" r="3.2"/><circle id="f10-testee-04" cx="180" cy="140" r="3.2"/><circle id="f10-testee-05" cx="220" cy="140" r="3.2"/><circle id="f10-testee-06" cx="260" cy="140" r="3.2"/><line id="f10-rebut-07a" x1="92" y1="172" x2="108" y2="188"/><line id="f10-rebut-07b" x1="92" y1="188" x2="108" y2="172"/><circle id="f10-testee-08" cx="140" cy="180" r="3.2"/><circle id="f10-testee-09" cx="180" cy="180" r="3.2"/><circle id="f10-testee-10" cx="220" cy="180" r="3.2"/><circle id="f10-testee-11" cx="260" cy="180" r="3.2"/><circle id="f10-testee-12" cx="300" cy="180" r="3.2"/><circle id="f10-testee-13" cx="100" cy="220" r="3.2"/><circle id="f10-testee-14" cx="140" cy="220" r="3.2"/><circle id="f10-testee-15" cx="180" cy="220" r="3.2"/><rect id="f10-pointes" x="213" y="213" width="14" height="14"/></svg>
