<svg xmlns="http://www.w3.org/2000/svg" viewBox="0 0 400 400" fill="none" stroke="currentColor" stroke-width="2.4" stroke-linecap="round" stroke-linejoin="round"><!-- Meme vue de dessus, meme pas de grille et meme taille de puce que 10.
       Les saignees traversent le wafer dans les rues, jamais sur une puce,
       et s'arretent avant l'encoche. L'emplacement en tirets est celui de la
       puce prelevee (element en tirets : ne pas l'animer avec DrawSVG). --><path id="f11-bord-wafer" d="M 134.9 314 A 115 115 0 1 1 165.1 314 L 150 297 Z"/><rect id="f11-die-01" x="75" y="125" width="30" height="30"/><rect id="f11-die-02" x="115" y="125" width="30" height="30"/><rect id="f11-die-03" x="155" y="125" width="30" height="30"/><rect id="f11-die-04" x="195" y="125" width="30" height="30"/><rect id="f11-die-05" x="75" y="165" width="30" height="30"/><rect id="f11-die-06" x="115" y="165" width="30" height="30"/><rect id="f11-die-07" x="155" y="165" width="30" height="30"/><rect id="f11-die-08" x="195" y="165" width="30" height="30"/><rect id="f11-die-09" x="75" y="205" width="30" height="30"/><rect id="f11-die-10" x="115" y="205" width="30" height="30"/><rect id="f11-die-11" x="155" y="205" width="30" height="30"/><rect id="f11-emplacement-libere" stroke-dasharray="5 4" x="195" y="205" width="30" height="30"/><rect id="f11-die-12" x="75" y="245" width="30" height="30"/><rect id="f11-die-13" x="115" y="245" width="30" height="30"/><rect id="f11-die-14" x="155" y="245" width="30" height="30"/><rect id="f11-die-15" x="195" y="245" width="30" height="30"/><line id="f11-saignee-v1" x1="110" y1="108" x2="110" y2="292"/><line id="f11-saignee-v2" x1="150" y1="108" x2="150" y2="292"/><line id="f11-saignee-v3" x1="190" y1="108" x2="190" y2="292"/><line id="f11-saignee-h1" x1="45" y1="160" x2="255" y2="160"/><line id="f11-saignee-h2" x1="45" y1="200" x2="255" y2="200"/><line id="f11-saignee-h3" x1="45" y1="240" x2="255" y2="240"/><line     id="f11-prelevement-tige"   x1="272" y1="220" x2="300" y2="220"/><polyline id="f11-prelevement-pointe" points="294,214 306,220 294,226"/><rect id="f11-die-prelevee" x="316" y="205" width="30" height="30"/></svg>
